<svg width="16" height="16" viewBox="1 1 14 14" fill="none" xmlns="http://www.w3.org/2000/svg">
<path d="M8 14C11.3137 14 14 11.3137 14 8C14 4.68629 11.3137 2 8 2C4.68629 2 2 4.68629 2 8C2 11.3137 4.68629 14 8 14Z" fill="#66F9A1"/>
<path d="M5.72186 9.38263C5.76333 9.34172 5.81925 9.31881 5.87749 9.31888H11.2647C11.2865 9.31858 11.3078 9.3248 11.3259 9.33673C11.3441 9.34866 11.3582 9.36575 11.3666 9.3858C11.375 9.40586 11.3771 9.42795 11.3728 9.44924C11.3685 9.47053 11.3579 9.49004 11.3424 9.50525L10.2781 10.5609C10.2367 10.6019 10.1808 10.625 10.1225 10.625H4.73524C4.71352 10.6252 4.69224 10.6189 4.67413 10.6069C4.65601 10.5949 4.64188 10.5778 4.63354 10.5578C4.62521 10.5377 4.62304 10.5156 4.62733 10.4943C4.63162 10.473 4.64216 10.4535 4.65761 10.4383L5.72186 9.38263ZM5.72186 5.43875C5.76333 5.39784 5.81925 5.37494 5.87749 5.375H11.2647C11.3626 5.375 11.4117 5.49275 11.3424 5.56175L10.2781 6.61738C10.2367 6.65828 10.1807 6.68119 10.1225 6.68113H4.73524C4.7136 6.68123 4.69241 6.67491 4.67438 6.66295C4.65634 6.65099 4.64227 6.63394 4.63395 6.61396C4.62563 6.59398 4.62344 6.57198 4.62765 6.55076C4.63187 6.52953 4.64229 6.51003 4.65761 6.49475L5.72186 5.43875ZM10.2781 7.39813C10.2367 7.35722 10.1807 7.33431 10.1225 7.33438H4.73524C4.71352 7.33419 4.69224 7.34049 4.67413 7.35247C4.65601 7.36444 4.64188 7.38156 4.63354 7.40161C4.62521 7.42167 4.62304 7.44375 4.62733 7.46504C4.63162 7.48633 4.64216 7.50586 4.65761 7.52113L5.72186 8.57675C5.76311 8.61762 5.81936 8.6405 5.87749 8.6405H11.2647C11.2865 8.64069 11.3077 8.63439 11.3259 8.62241C11.344 8.61043 11.3581 8.59332 11.3664 8.57326C11.3748 8.55321 11.3769 8.53112 11.3726 8.50983C11.3684 8.48854 11.3578 8.46901 11.3424 8.45375L10.2781 7.39813Z" fill="white"/>
</svg>
