<svg width="24" height="24" viewBox="0 0 24 24" fill="none" xmlns="http://www.w3.org/2000/svg">
  <path d="M12 22C17.5228 22 22 17.5228 22 12C22 6.47715 17.5228 2 12 2C6.47715 2 2 6.47715 2 12C2 17.5228 6.47715 22 12 22Z" fill="#F7931A"/>
  <path d="M16.4931 10.7625C16.6894 9.4525 15.6913 8.74813 14.3275 8.27813L14.77 6.50312L13.69 6.23438L13.2588 7.9625C12.975 7.89125 12.6838 7.825 12.3931 7.75875L12.8275 6.01938L11.7475 5.75L11.305 7.52437C11.07 7.47062 10.8388 7.41813 10.615 7.36188L10.6163 7.35625L9.12625 6.98437L8.83875 8.13813C8.83875 8.13813 9.64063 8.32188 9.62375 8.33313C10.0613 8.4425 10.14 8.73187 10.1269 8.96187L9.62313 10.9837C9.65313 10.9912 9.69188 11.0025 9.73563 11.0194L9.62125 10.9912L8.915 13.8237C8.86125 13.9562 8.72563 14.1556 8.41938 14.08C8.43063 14.0956 7.63438 13.8844 7.63438 13.8844L7.09813 15.1206L8.50438 15.4713C8.76563 15.5369 9.02188 15.6056 9.27375 15.67L8.82688 17.465L9.90625 17.7337L10.3488 15.9587C10.6438 16.0381 10.93 16.1119 11.21 16.1819L10.7688 17.9494L11.8488 18.2181L12.2956 16.4269C14.1381 16.7756 15.5231 16.635 16.1063 14.9688C16.5763 13.6275 16.0831 12.8531 15.1138 12.3488C15.82 12.1863 16.3513 11.7219 16.4931 10.7625V10.7625ZM14.0244 14.2238C13.6913 15.5656 11.4319 14.84 10.6994 14.6581L11.2931 12.28C12.0256 12.4631 14.3738 12.825 14.0244 14.2238ZM14.3588 10.7431C14.0544 11.9638 12.1744 11.3431 11.565 11.1913L12.1025 9.035C12.7119 9.18687 14.6763 9.47 14.3588 10.7431Z" fill="white"/>
</svg>
